:FULLY-SPECIFIED
:FORCE-ALL-JOINTS-BE-3DOF
:DEGREES
3160
root 0.956625 16.9241 -33.363 1086.05 5.17884 -3.83956
lfemur -18.6953 -2.40055 -8.23201
ltibia 35.1967 0 0
lfoot -16.4606 7.3435 0
ltoes -39.9355 0 0
rfemur -19.3537 -0.23583 18.6381
rtibia 39.2126 0 0
rfoot -12.0861 -20.8888 0
rtoes -16.4764 0 0
lowerback 5.75866 1.53279 -0.489476
upperback -4.0423 2.14598 1.88213
thorax -7.56424 1.13733 1.98807
lowerneck -5.38721 -5.12694 -7.89224
upperneck 9.28379 -6.77097 5.96615
head 4.12632 -3.32943 2.73536
lclavicle 9.92448e-15 -1.54058e-14 0
lhumerus -33.2317 -18.3261 94.8084
lradius 51.0838 0 0
lwrist -8.95637 0 0
lhand -34.4295 389.535 0
lfingers 7.12502 0 0
lthumb -7.59413 -660.621 0
rclavicle 9.92448e-15 -1.54058e-14 0
rhumerus -35.4784 13.7955 -81.3604
rradius 50.3626 0 0
rwrist 1.66918 0 0
rhand -28.9322 -393.752 0
rfingers 7.12502 0 0
rthumb -2.28626 296.28 0
3161
root 0.964197 16.9266 -33.3574 1086.06 5.10726 -3.87113
lfemur -18.5907 -2.38943 -8.2393
ltibia 35.1446 0 0
lfoot -16.4415 7.45275 0
ltoes -40.008 0 0
rfemur -19.2779 -0.193638 18.6502
rtibia 39.076 0 0
rfoot -12.0667 -20.8698 0
rtoes -16.4746 0 0
lowerback 5.70869 1.53203 -0.496752
upperback -4.04946 2.14444 1.88654
thorax -7.54327 1.13711 1.99809
lowerneck -5.40616 -5.11279 -7.91704
upperneck 9.33702 -6.75127 5.97568
head 4.14543 -3.31987 2.74266
lclavicle 9.14837e-15 2.45002e-14 0
lhumerus -33.1903 -18.0488 94.7164
lradius 50.593 0 0
lwrist -9.138 0 0
lhand -34.5369 389.255 0
lfingers 7.12502 0 0
lthumb -7.69777 -660.906 0
rclavicle 9.14837e-15 2.45002e-14 0
rhumerus -35.4319 13.5407 -81.3499
rradius 49.796 0 0
rwrist 1.62733 0 0
rhand -28.8159 -393.757 0
rfingers 7.12502 0 0
rthumb -2.17395 296.274 0
3162
root 0.970484 16.9294 -33.3526 1086.05 5.01551 -3.90957
lfemur -18.4818 -2.37786 -8.24689
ltibia 35.0938 0 0
lfoot -16.4221 7.56359 0
ltoes -40.0743 0 0
rfemur -19.2092 -0.155449 18.6612
rtibia 38.9404 0 0
rfoot -12.0546 -20.8581 0
rtoes -16.4716 0 0
lowerback 5.67843 1.52518 -0.505555
upperback -4.04297 2.13512 1.90092
thorax -7.51929 1.13332 2.02007
lowerneck -5.48157 -5.11066 -7.91935
upperneck 9.43194 -6.74278 5.94227
head 4.18525 -3.31622 2.73072
lclavicle 1.94902e-15 1.09829e-14 0
lhumerus -33.1249 -17.7432 94.6127
lradius 50.1087 0 0
lwrist -9.35566 0 0
lhand -34.7053 389.711 0
lfingers 7.12502 0 0
lthumb -7.86039 -660.455 0
rclavicle 1.94902e-15 1.09829e-14 0
rhumerus -35.3629 13.402 -81.3568
rradius 49.2397 0 0
rwrist 1.50734 0 0
rhand -28.8204 -393.946 0
rfingers 7.12502 0 0
rthumb -2.17828 296.085 0
3163
root 0.976838 16.9318 -33.3486 1086.05 4.95361 -3.97401
lfemur -18.3705 -2.36601 -8.25465
ltibia 35.0449 0 0
lfoot -16.4025 7.67497 0
ltoes -40.1332 0 0
rfemur -19.1487 -0.121762 18.6708
rtibia 38.8074 0 0
rfoot -12.0504 -20.854 0
rtoes -16.4676 0 0
lowerback 5.63591 1.54021 -0.480739
upperback -4.04176 2.15753 1.90516
thorax -7.49342 1.1431 2.00884
lowerneck -5.4761 -5.10736 -7.88618
upperneck 9.48197 -6.74014 5.90858
head 4.19711 -3.31557 2.715
lclavicle -7.69786e-15 -1.635e-14 0
lhumerus -33.0364 -17.5629 94.5338
lradius 49.5953 0 0
lwrist -9.54395 0 0
lhand -34.1115 390.864 0
lfingers 7.12502 0 0
lthumb -7.28719 -659.282 0
rclavicle -7.69786e-15 -1.635e-14 0
rhumerus -35.3723 13.1052 -81.3584
rradius 48.7323 0 0
rwrist 1.41827 0 0
rhand -28.848 -393.702 0
rfingers 7.12502 0 0
rthumb -2.20495 296.329 0
3164
root 0.982488 16.934 -33.3447 1086.03 4.86449 -4.03701
lfemur -18.2582 -2.35408 -8.26247
ltibia 34.9985 0 0
lfoot -16.3831 7.78581 0
ltoes -40.1837 0 0
rfemur -19.0971 -0.0930783 18.6791
rtibia 38.6787 0 0
rfoot -12.0488 -20.8504 0
rtoes -16.4627 0 0
lowerback 5.61533 1.56728 -0.466929
upperback -4.04674 2.19575 1.91473
thorax -7.48831 1.1615 2.0069
lowerneck -5.45113 -5.10275 -7.87113
upperneck 9.53739 -6.73657 5.88337
head 4.2082 -3.31503 2.70529
lclavicle 1.45303e-14 -2.01269e-15 0
lhumerus -32.9918 -17.3663 94.4738
lradius 49.1171 0 0
lwrist -9.75073 0 0
lhand -33.926 390.916 0
lfingers 7.12502 0 0
lthumb -7.10809 -659.223 0
rclavicle 1.45303e-14 -2.01269e-15 0
rhumerus -35.3673 12.8291 -81.3454
rradius 48.1956 0 0
rwrist 1.35136 0 0
rhand -28.9161 -393.954 0
rfingers 7.12502 0 0
rthumb -2.27072 296.078 0
3165
root 0.98914 16.9376 -33.3399 1086.02 4.80146 -4.03984
lfemur -18.1469 -2.34223 -8.27023
ltibia 34.9553 0 0
lfoot -16.364 7.89506 0
ltoes -40.2248 0 0
rfemur -19.0555 -0.0698978 18.6857
rtibia 38.5562 0 0
rfoot -12.044 -20.84 0
rtoes -16.4571 0 0
lowerback 5.58162 1.59847 -0.485035
upperback -4.04853 2.23384 1.88638
thorax -7.4717 1.18029 1.9834
lowerneck -5.47683 -5.09546 -7.79372
upperneck 9.60954 -6.72836 5.82295
head 4.2292 -3.31088 2.67371
lclavicle -3.05059e-14 -2.6339e-15 0
lhumerus -32.9072 -17.2373 94.3933
lradius 48.5949 0 0
lwrist -9.94153 0 0
lhand -33.6354 391.061 0
lfingers 7.12502 0 0
lthumb -6.82764 -659.069 0
rclavicle -3.05059e-14 -2.6339e-15 0
rhumerus -35.3819 12.464 -81.3259
rradius 47.7019 0 0
rwrist 1.32888 0 0
rhand -28.8607 -393.645 0
rfingers 7.12502 0 0
rthumb -2.21715 296.386 0
3166
root 0.99536 16.9401 -33.3352 1086.02 4.71379 -4.05197
lfemur -18.038 -2.33066 -8.27782
ltibia 34.9157 0 0
lfoot -16.3453 8.00166 0
ltoes -40.2555 0 0
rfemur -19.0246 -0.0527209 18.6907
rtibia 38.4416 0 0
rfoot -12.0364 -20.8233 0
rtoes -16.4509 0 0
lowerback 5.54675 1.61555 -0.502898
upperback -4.04854 2.25432 1.87702
thorax -7.45262 1.19096 1.98196
lowerneck -5.4805 -5.06918 -7.81748
upperneck 9.64549 -6.69637 5.86581
head 4.24071 -3.29384 2.69248
lclavicle 2.7792e-15 -4.01172e-14 0
lhumerus -32.8404 -17.0474 94.3146
lradius 48.1034 0 0
lwrist -10.1375 0 0
lhand -34.7329 388.886 0
lfingers 7.12502 0 0
lthumb -7.88697 -661.281 0
rclavicle 2.7792e-15 -4.01172e-14 0
rhumerus -35.3833 12.2137 -81.3275
rradius 47.2232 0 0
rwrist 1.34796 0 0
rhand -28.8614 -393.542 0
rfingers 7.12502 0 0
rthumb -2.21789 296.489 0
